<?xml version="1.0" encoding="utf-8"?>
<!-- Generator: Adobe Illustrator 16.0.0, SVG Export Plug-In . SVG Version: 6.00 Build 0)  -->
<!DOCTYPE svg PUBLIC "-//W3C//DTD SVG 1.1//EN" "http://www.w3.org/Graphics/SVG/1.1/DTD/svg11.dtd">
<svg version="1.1" id="Layer_1" xmlns="http://www.w3.org/2000/svg" xmlns:xlink="http://www.w3.org/1999/xlink" x="0px" y="0px"
	 width="68.485px" height="29.939px" viewBox="0 0 68.485 29.939" enable-background="new 0 0 68.485 29.939" xml:space="preserve">
<g>
	<circle fill="#FFFFFF" cx="17.591" cy="14.97" r="11.84"/>
	<circle fill="#FFFFFF" cx="50.894" cy="14.97" r="11.84"/>
	<path d="M17.591,14.97l3.312-7.775C19.886,6.76,18.766,6.52,17.591,6.52c-4.667,0-8.449,3.783-8.449,8.45
		c0,4.667,3.783,8.45,8.449,8.45c4.668,0,8.45-3.784,8.45-8.45c0-0.817-0.122-1.605-0.339-2.354L17.591,14.97z"/>
	<path d="M50.894,14.97l3.312-7.775C53.189,6.76,52.069,6.52,50.894,6.52c-4.667,0-8.449,3.783-8.449,8.45
		c0,4.667,3.782,8.45,8.449,8.45c4.668,0,8.45-3.784,8.45-8.45c0-0.817-0.122-1.605-0.339-2.354L50.894,14.97z"/>
</g>
</svg>
